<svg data-name="Слой 1" xmlns="http://www.w3.org/2000/svg" viewBox="0 0 44.99 44.99"><circle cx="22.5" cy="22.5" r="22.5" fill="#b44a49"/><g fill="#fff"><path d="M13.35 18.51l-.29 1.64a6.94 6.94 0 0 1 1.44-.14 3.71 3.71 0 0 1 4 3.89c0 3.08-2.54 4.81-5.44 4.81a7.05 7.05 0 0 1-3.91-1.12l.27-3h.38a3.79 3.79 0 0 0 3.06 1.49c1.48 0 2.48-.74 2.48-2.23s-1.48-1.94-2.79-1.94a4.9 4.9 0 0 0-2.16.54h-.57l1.39-6.68h6.81v2.77h-4.67zM23.1 15.37a3.46 3.46 0 1 1-3.46 3.46 3.48 3.48 0 0 1 3.46-3.46zm0 4.86a1.4 1.4 0 1 0-1.4-1.4 1.38 1.38 0 0 0 1.4 1.41zm7.38-4.86h1.64l-8.19 13.31h-1.64zm.83 6.41a3.46 3.46 0 1 1-3.46 3.46 3.48 3.48 0 0 1 3.46-3.46zm0 4.86a1.4 1.4 0 1 0-1.4-1.4 1.38 1.38 0 0 0 1.4 1.44z"/></g></svg>