<svg id="Слой_1" data-name="Слой 1" xmlns="http://www.w3.org/2000/svg" xmlns:xlink="http://www.w3.org/1999/xlink" viewBox="0 0 98.83 107.29"><defs><style>.cls-1{fill:none;}.cls-2{fill:#4c4a7c;}.cls-3{clip-path:url(#clip-path);}</style><clipPath id="clip-path"><rect class="cls-1" x="-102.82" y="3.12" width="88.35" height="115.9"/></clipPath></defs><title>Для Лендинга иконки</title><path class="cls-2" d="M58.84,30.91a5.41,5.41,0,0,1,2.86,2c.53.61,1.14,1.16,1.72,1.73.29.28.6.53.88.82a3.55,3.55,0,0,1,.44,4.6,9.5,9.5,0,0,1-3.39,3.13,37.07,37.07,0,0,1-7.64,3.2l-1.66.5.44.26c1.27.67,2.53,1.35,3.81,2a.56.56,0,0,1,.35.58c0,2,0,4.06,0,6.09v.53c.15-.06.26-.09.36-.14,1.14-.57,2.27-1.15,3.41-1.71a.45.45,0,0,0,.3-.47q0-3,0-6.09a.44.44,0,0,0-.33-.48c-.83-.32-1.66-.67-2.57-1l1.49-.65a15.85,15.85,0,0,0,4.89-3A1.43,1.43,0,0,1,66,42.39c.73.31,1.51.51,2.27.77a1.37,1.37,0,0,1,1,1.4c0,2,0,4,0,6a1.51,1.51,0,0,1-1,1.41L53,59.71c-.91.46-1.83.9-2.73,1.39a1.77,1.77,0,0,1-1.77,0q-9-4.57-18.11-9.12a1.52,1.52,0,0,1-.91-1.49c0-1.93,0-3.85,0-5.78a1.47,1.47,0,0,1,1.16-1.62c1-.32,1.94-.64,2.91-.94a.55.55,0,0,1,.46.07,16.49,16.49,0,0,0,5.33,3.45c.51.23,1,.45,1.64.72l-1.63.68c-.41.17-1,.23-1.18.54s-.08.88-.08,1.34c0,1.66,0,3.32,0,5a.53.53,0,0,0,.35.57c1.22.59,2.43,1.22,3.7,1.86,0-.22,0-.37,0-.52,0-2,0-4.06,0-6.09a.59.59,0,0,1,.36-.62c1.26-.65,2.52-1.32,3.77-2l.44-.26c-1.3-.42-2.55-.8-3.78-1.24a29.47,29.47,0,0,1-5.91-2.73,9.18,9.18,0,0,1-3-2.84,3.55,3.55,0,0,1,.48-4.7c1.1-1.12,2.22-2.22,3.32-3.33A4.46,4.46,0,0,1,40,30.91h1.07a13,13,0,0,1,1.68.76,9.26,9.26,0,0,1,3,3.36,39.72,39.72,0,0,1,3.48,8.65l.13.43a1.12,1.12,0,0,0,.21-.43,41.46,41.46,0,0,1,3-7.88c1.17-2.19,2.58-4.15,5.14-4.89Zm-11.35,14a39,39,0,0,0-3.74-9.31,7.57,7.57,0,0,0-2-2.16,1.68,1.68,0,0,0-2.61.21q-1.46,1.48-2.94,2.94a1.7,1.7,0,0,0-.2,2.62,7.41,7.41,0,0,0,2.81,2.32q2.63,1.22,5.32,2.3C45.21,44.29,46.29,44.57,47.49,44.95Zm3.89-.08a2,2,0,0,0,.29,0A44.57,44.57,0,0,0,59.21,42a9.61,9.61,0,0,0,3.56-2.73,1.73,1.73,0,0,0-.21-2.69q-1.46-1.42-2.88-2.88a1.71,1.71,0,0,0-2.68-.2,8.75,8.75,0,0,0-2.35,2.86,34.7,34.7,0,0,0-2.49,6C51.89,43.16,51.64,44,51.37,44.87Z"/><path class="cls-2" d="M48,62.4a2.86,2.86,0,0,0,2.73,0V72.64c.18-.09.3-.13.41-.19l13.15-7.58a.59.59,0,0,0,.32-.6c0-2.8,0-5.6,0-8.4a.66.66,0,0,1,.44-.7c.75-.35,1.48-.73,2.27-1.13,0,.2,0,.34,0,.48,0,3.56,0,7.11,0,10.67a1.68,1.68,0,0,1-.93,1.62q-8.08,4.64-16.14,9.32a1.63,1.63,0,0,1-1.79,0q-8.08-4.69-16.18-9.35a1.61,1.61,0,0,1-.9-1.55c0-3.57,0-7.14,0-10.71,0-.13,0-.26,0-.49a12.09,12.09,0,0,0,1.54.76,1.64,1.64,0,0,1,1.22,1.93c-.1,2.51,0,5,0,7.55a.59.59,0,0,0,.33.6L47.74,72.5l.31.15Z"/><path class="cls-2" d="M48.45,37.31a1.91,1.91,0,0,1,1.93,0l-1,2.41Z"/></svg>