<svg id="Слой_1" data-name="Слой 1" xmlns="http://www.w3.org/2000/svg" viewBox="0 0 27.98 20.82">
  <g id="Слой_1-2" data-name="Слой_1">
    <g id="_860291520" data-name=" 860291520">
      <circle cx="14.03" cy="10.41" r="10.41" style="fill: #fefefe"/>
      <g>
        <path d="M7.57,23.08a10.36,10.36,0,0,0,4.59-.58c1.24-.51,1.24-1,1.67-0.8a34.37,34.37,0,0,1,2.69,3.42c0.22,0.15-.66,1.46-3.64,1.89-3.57.44-8.74-1.31-9.46-5.31a1.49,1.49,0,0,1,0-.8C4.29,18.93,4.88,22.64,7.57,23.08Z" transform="translate(-3.37 -6.92)" style="fill: #fefefe"/>
        <path d="M17.32,24.39S17.69,24.6,19,23.08a18.36,18.36,0,0,0,2.62-4.29c-0.15-.15-0.29.07-4.51,1.38C13.32,21.55,14.19,21,17.32,24.39Z" transform="translate(-3.37 -6.92)" style="fill: #fefefe"/>
        <path d="M29.63,13.25a3.64,3.64,0,0,0-2.47-1.6,9.51,9.51,0,0,0-4.59.66c-1.24.51-1.24,1-1.67,0.8A35.81,35.81,0,0,1,18.2,9.46c-0.15-.15.66-1.53,3.64-2,3.57-.58,8.66,1.38,9.46,5.61,0.22,1.31-.44,1.75-0.66,1.82S30.06,13.76,29.63,13.25Z" transform="translate(-3.37 -6.92)" style="fill: #fefefe"/>
        <path d="M17.11,9.68s-0.95,0-2.33,1.75A20.35,20.35,0,0,0,12,16.31c0.15,0.15.29-.07,4.73-1.6C21.33,12.88,20.6,13.76,17.11,9.68Z" transform="translate(-3.37 -6.92)" style="fill: #fefefe"/>
      </g>
      <g>
        <path d="M8.74,23.15a12.41,12.41,0,0,0,3.42-.66c1.24-.51,1.24-1,1.67-0.8a34.37,34.37,0,0,1,2.69,3.42c0.22,0.15-.58,1.31-3.2,1.82A10.18,10.18,0,0,1,8.74,23.15Z" transform="translate(-3.37 -6.92)" style="fill: #e84f4f"/>
        <path d="M17.32,24.39S17.69,24.6,19,23.08a18.36,18.36,0,0,0,2.62-4.29c-0.15-.15-0.29.07-4.51,1.38C13.32,21.55,14.19,21,17.32,24.39Z" transform="translate(-3.37 -6.92)" style="fill: #e84f4f"/>
        <path d="M26.13,11.57a9.45,9.45,0,0,0-3.57.73c-1.24.51-1.24,1-1.67,0.8A35.81,35.81,0,0,1,18.2,9.46c-0.15-.15.51-1.31,3-1.89A10.67,10.67,0,0,1,26.13,11.57Z" transform="translate(-3.37 -6.92)" style="fill: #e84f4f"/>
        <path d="M17.11,9.68s-0.95,0-2.33,1.75A20.35,20.35,0,0,0,12,16.31c0.15,0.15.29-.07,4.73-1.6C21.33,12.88,20.6,13.76,17.11,9.68Z" transform="translate(-3.37 -6.92)" style="fill: #e84f4f"/>
      </g>
    </g>
  </g>
</svg>
