<svg data-name="Слой 1" xmlns="http://www.w3.org/2000/svg" viewBox="0 0 7.41 7.41"><g fill="#fff"><path d="M.88 7.4a.88.88 0 0 1-.62-1.49l2.83-2.83a.877.877 0 0 1 1.24 1.24L1.5 7.17a.87.87 0 0 1-.62.23z"/><path d="M3.71 4.58a.87.87 0 0 1-.62-.26L.26 1.49A.877.877 0 0 1 1.5.25l2.83 2.83a.88.88 0 0 1-.62 1.5z"/><path d="M6.58 7.4a.87.87 0 0 1-.62-.26L3.13 4.31a.877.877 0 1 1 1.24-1.24L7.2 5.9a.88.88 0 0 1-.62 1.5z"/><path d="M3.71 4.58a.88.88 0 0 1-.62-1.49L5.92.26A.877.877 0 1 1 7.16 1.5L4.33 4.33a.87.87 0 0 1-.62.25z"/></g></svg>