<svg data-name="Слой 1" xmlns="http://www.w3.org/2000/svg" viewBox="0 0 24.42 30.75"><g fill="#b54b49"><path d="M18.46 30.75H.87a.87.87 0 0 1-.87-.87v-29A.87.87 0 0 1 .88.01h22.67a.87.87 0 0 1 .88.88v23.83a.88.88 0 0 1-.87.88h-4.21v4.3a.87.87 0 0 1-.89.85zM1.75 29h15.83v-4.3a.88.88 0 0 1 .88-.87h4.21V1.75H1.75V29z"/><path d="M18.46 30.75a.88.88 0 0 1-.62-1.49l5.08-5.17a.877.877 0 0 1 1.25 1.23l-5.08 5.17a.87.87 0 0 1-.63.26zM19.79 6.5H4.37a.88.88 0 1 1 0-1.75h15.42a.88.88 0 1 1 0 1.75zM19.79 9.84H4.37a.88.88 0 0 1 0-1.75h15.42a.88.88 0 0 1 0 1.75zM19.79 13.42H4.37a.88.88 0 1 1 0-1.75h15.42a.88.88 0 1 1 0 1.75zM19.79 16.92H4.37a.88.88 0 1 1 0-1.75h15.42a.88.88 0 1 1 0 1.75zM19.79 20.73H4.37a.88.88 0 1 1 0-1.75h15.42a.88.88 0 1 1 0 1.75z"/></g></svg>