<svg data-name="Слой 1" xmlns="http://www.w3.org/2000/svg" viewBox="0 0 44.99 44.99"><circle cx="22.5" cy="22.5" r="22.5" fill="#d37a5b"/><g fill="#fff"><path d="M12.38 15.1h3.15v5.58a3.43 3.43 0 0 1 2.83-1.33c2.83 0 3.1 2.52 3.1 3.94v5.08h-3.18v-4.79c0-.52 0-1.64-1.12-1.64-.81 0-1.66.65-1.66 2.14v4.29h-3.12V15.1zM24.94 15.46a1.66 1.66 0 1 1-1.66 1.66 1.65 1.65 0 0 1 1.66-1.66zm1.58 4.18v8.7h-3.15v-8.66h3.15zM28.81 21.91h-1.13v-2.23h1.13v-2.39h3.15v2.39h1.76v2.27h-1.76v6.43h-3.15v-6.43z"/></g></svg>