<?xml version="1.0" encoding="utf-8"?>
<!-- Generator: Adobe Illustrator 21.0.0, SVG Export Plug-In . SVG Version: 6.00 Build 0)  -->
<svg version="1.1" id="Слой_1" xmlns="http://www.w3.org/2000/svg" xmlns:xlink="http://www.w3.org/1999/xlink" x="0px" y="0px"
	 viewBox="0 0 192 192" style="enable-background:new 0 0 192 192;" xml:space="preserve">
<style type="text/css">
	.st0{fill:#FFFFFF;}
	.st1{fill:#4C497B;}
</style>
<g>
	<path class="st0" d="M192,192c-64,0-128,0-192,0C0,128,0,64,0,0c64,0,128,0,192,0C192,64,192,128,192,192z M47.8,70.3
		c-0.3,0-0.4,0-0.5,0c-8.4,1.7-16.7,3.8-24.5,7.3c-4.8,2.1-9.4,4.6-13.2,8.4C6.4,89.2,4.4,93,4.8,97.6c0.4,4.5,2.8,7.9,5.9,11
		c4.8,4.7,10.5,7.8,16.5,10.4c12.2,5.4,25.1,8.6,38.3,11c1.9,0.4,3.8,0.7,5.7,1c-0.2,2.9-0.4,5.5-0.6,8.4
		c8.1-3.9,16.1-7.7,24.1-11.6c-7.5-5.1-14.7-10-22.1-15.1c-0.2,2.9-0.4,5.6-0.7,8.3c-0.3,0-0.4,0-0.5,0c-10-0.8-19.9-2.2-29.6-4.5
		c-7.5-1.8-14.8-4-21.6-7.7c-3.7-2-7.2-4.3-9.6-7.8c-2.2-3.2-2.4-6.6-0.4-10.1c1.6-2.9,3.9-5,6.5-7c5.8-4.3,12.2-7.2,18.9-9.7
		C39.6,72.9,43.6,71.7,47.8,70.3z M148,83.3c-0.1-1.1-0.1-2.6-0.2-4.2c-0.4-4.8-1.4-9.5-4-13.7c-3.8-6.2-11.5-8.3-17.7-4.8
		c-3.8,2.1-5.9,5.5-7.3,9.5c-2.3,6.5-2.6,13.1-1.8,19.9c0.4,3.9,1.3,7.6,3.1,11.1c3.5,6.7,9.8,9.4,16.6,7.1c4.4-1.5,7-4.9,8.7-9
		C147.4,94.3,147.9,89.1,148,83.3z M108.2,59.3c-0.3,0-0.5-0.1-0.7-0.1c-1.2,0-2.4,0-3.6,0.1c-9.5,0.8-16.3,5.5-20.2,14.3
		c-2.2,5-3,10.3-2.8,15.8c0.2,4.7,1.3,9.1,3.9,13c5.2,7.8,16.7,8.8,23.1,1.9c5.2-5.5,6.3-15.5,2.6-22.2c-4.1-7.3-13.1-8.6-19.1-2.9
		c-0.1,0.1-0.2,0.2-0.6,0.4c0.1-0.6,0.2-1,0.3-1.3c1.5-5.5,5.2-8.8,10.7-9.9c2.1-0.4,4.2-0.5,6.3-0.8
		C108.2,64.9,108.2,62.1,108.2,59.3z M99.2,133.8c1.4-0.1,2.6-0.2,3.8-0.3c14.4-1.2,28.6-3.5,42.5-7.3c9.9-2.7,19.5-6.1,28.3-11.5
		c4.5-2.7,8.6-5.9,11.4-10.5c3.1-5.2,3.1-10.4-0.3-15.4c-1.8-2.7-4.3-4.8-7-6.7c-6.6-4.4-13.9-7-21.4-9.1c-2.2-0.6-4.4-1.1-6.6-1.7
		c0.2,0.3,0.5,0.4,0.8,0.5c7.1,2.3,14,5,20.4,8.8c3.6,2.1,6.9,4.6,9.6,7.9c4,4.9,3.8,9.9-0.4,14.6c-2.8,3.1-6.3,5.2-10,7.1
		c-8.7,4.3-18.1,6.6-27.5,8.4c-14,2.6-28.1,3.5-42.2,3.5c-0.5,0-1.1,0-1.7,0C98.9,126.1,99.1,129.8,99.2,133.8z M52.8,86.6
		c1.4,0,2.7-0.1,3.9,0c1.6,0.2,3.2,0.4,4.6,1c2.7,1.1,4.1,3.8,3.8,6.7c-0.3,2.8-2.2,4.8-5.1,5.4c-3.1,0.7-6,0-8.9-1.1
		c-1.1-0.4-2.1-1-3.3-1.5c-0.6,2.5-1.1,4.9-1.7,7.2c-0.2,0.9,0,1.3,0.8,1.7c4.7,2.6,9.8,3.2,15,2.5c8.6-1.2,13.9-7.5,13.3-15.8
		c-0.4-4.8-3.5-8.7-8.1-10.1c-0.3-0.1-0.5-0.2-0.9-0.4c0.5-0.2,0.8-0.4,1-0.5c4.6-2.3,6.8-6,6.6-11c-0.2-5.2-2.7-9-7.7-10.7
		c-6.3-2.2-12.5-1.1-18.2,2.1c-0.3,0.2-0.6,0.9-0.5,1.2c0.3,1.5,0.7,3,1.1,4.5c0.2,0.9,0.4,1.7,0.6,2.5c2-0.8,3.9-1.6,5.8-2.2
		c1.9-0.6,4-0.6,5.9,0.1c1.9,0.7,3,2,3.2,4c0.2,1.9-0.5,3.5-2.1,4.7c-1.7,1.2-3.7,1.5-5.8,1.6c-1.1,0-2.1,0-3.2,0
		C52.8,81.4,52.8,83.9,52.8,86.6z M156.5,54.6c0-3.5-2.9-6.4-6.4-6.4c-3.5,0-6.4,2.9-6.3,6.5c0,3.5,3,6.4,6.4,6.4
		C153.7,61,156.5,58.2,156.5,54.6z"/>
	<path class="st1" d="M47.8,70.3c-4.1,1.4-8.2,2.6-12.2,4c-6.7,2.4-13.2,5.4-18.9,9.7c-2.6,1.9-4.9,4.1-6.5,7
		c-1.9,3.4-1.8,6.8,0.4,10.1c2.4,3.5,5.9,5.8,9.6,7.8c6.8,3.7,14.1,5.9,21.6,7.7c9.7,2.3,19.6,3.7,29.6,4.5c0.1,0,0.2,0,0.5,0
		c0.2-2.7,0.4-5.4,0.7-8.3c7.4,5.1,14.7,10,22.1,15.1c-8.1,3.9-16,7.7-24.1,11.6c0.2-2.9,0.4-5.6,0.6-8.4c-1.9-0.3-3.8-0.7-5.7-1
		c-13.1-2.4-26-5.6-38.3-11c-6-2.7-11.8-5.8-16.5-10.4c-3.1-3-5.5-6.5-5.9-11C4.4,93,6.4,89.2,9.6,86c3.7-3.8,8.3-6.3,13.2-8.4
		c7.9-3.5,16.1-5.6,24.5-7.3C47.4,70.3,47.5,70.3,47.8,70.3z"/>
	<path class="st1" d="M148,83.3c-0.1,5.7-0.6,11-2.6,15.9c-1.7,4.1-4.3,7.5-8.7,9c-6.7,2.3-13-0.5-16.6-7.1
		c-1.8-3.5-2.7-7.2-3.1-11.1c-0.7-6.7-0.5-13.4,1.8-19.9c1.4-3.9,3.5-7.4,7.3-9.5c6.2-3.5,13.8-1.4,17.7,4.8c2.6,4.2,3.5,8.9,4,13.7
		C147.9,80.7,148,82.3,148,83.3z M138.4,83.9c-0.1-2.3-0.2-4.6-0.4-6.8c-0.3-2.6-0.7-5.2-2.2-7.5c-1.8-2.7-4.9-2.7-6.6-0.1
		c-0.8,1.2-1.4,2.6-1.7,3.9c-1.5,6.1-1.4,12.3-0.6,18.5c0.3,2.1,1,4.3,1.9,6.2c1.7,3.3,5.4,3.2,7.2,0c0.4-0.8,0.8-1.7,1-2.5
		C138.2,91.7,138.3,87.8,138.4,83.9z"/>
	<path class="st1" d="M108.2,59.3c0,2.9,0,5.6,0,8.3c-2.1,0.3-4.3,0.3-6.3,0.8c-5.5,1.2-9.2,4.4-10.7,9.9c-0.1,0.4-0.2,0.8-0.3,1.3
		c0.3-0.2,0.4-0.3,0.6-0.4c6-5.7,15.1-4.4,19.1,2.9c3.8,6.7,2.6,16.6-2.6,22.2c-6.4,6.9-17.9,5.9-23.1-1.9c-2.6-4-3.7-8.4-3.9-13
		c-0.2-5.5,0.6-10.8,2.8-15.8c3.8-8.8,10.7-13.5,20.2-14.3c1.2-0.1,2.4-0.1,3.6-0.1C107.7,59.2,107.9,59.2,108.2,59.3z M103.1,92.3
		c-0.2-1.4-0.4-2.7-0.7-4c-0.6-2-1.8-3.7-3.9-4.3c-3.3-1.1-7.1,1.3-7.8,4.9c-0.5,3.1,0,6.1,1.6,8.8c1.2,2.1,3.1,3.3,5.6,3
		c2.5-0.3,3.7-2,4.4-4.2C102.7,95.1,102.9,93.7,103.1,92.3z"/>
	<path class="st1" d="M99.2,133.8c-0.1-3.9-0.3-7.7-0.4-11.7c0.6,0,1.2,0,1.7,0c14.2,0,28.3-1,42.2-3.5c9.5-1.8,18.8-4.1,27.5-8.4
		c3.7-1.8,7.2-3.9,10-7.1c4.2-4.7,4.3-9.7,0.4-14.6c-2.6-3.3-6-5.8-9.6-7.9c-6.4-3.8-13.3-6.5-20.4-8.8c-0.3-0.1-0.6-0.2-0.8-0.5
		c2.2,0.6,4.4,1.1,6.6,1.7c7.5,2.1,14.9,4.7,21.4,9.1c2.7,1.8,5.2,3.9,7,6.7c3.4,5.1,3.4,10.3,0.3,15.4c-2.8,4.6-6.9,7.7-11.4,10.5
		c-8.8,5.4-18.5,8.8-28.3,11.5c-13.9,3.8-28.1,6-42.5,7.3C101.8,133.5,100.5,133.6,99.2,133.8z"/>
	<path class="st1" d="M52.8,86.6c0-2.7,0-5.3,0-8c1.1,0,2.2,0,3.2,0c2.1,0,4.1-0.3,5.8-1.6c1.6-1.1,2.3-2.7,2.1-4.7
		c-0.2-2-1.3-3.3-3.2-4c-1.9-0.7-4-0.7-5.9-0.1c-1.9,0.6-3.8,1.4-5.8,2.2c-0.2-0.7-0.4-1.6-0.6-2.5c-0.4-1.5-0.8-3-1.1-4.5
		c-0.1-0.4,0.2-1.1,0.5-1.2c5.8-3.2,11.9-4.3,18.2-2.1c4.9,1.7,7.5,5.5,7.7,10.7c0.2,5-2.1,8.8-6.6,11c-0.3,0.1-0.6,0.3-1,0.5
		c0.4,0.2,0.7,0.3,0.9,0.4c4.6,1.4,7.7,5.3,8.1,10.1c0.6,8.3-4.7,14.7-13.3,15.8c-5.2,0.7-10.3,0.1-15-2.5c-0.8-0.4-1-0.8-0.8-1.7
		c0.6-2.4,1.1-4.7,1.7-7.2c1.1,0.5,2.2,1,3.3,1.5c2.9,1.1,5.8,1.8,8.9,1.1c2.9-0.6,4.8-2.7,5.1-5.4c0.3-2.9-1-5.6-3.8-6.7
		c-1.4-0.6-3.1-0.8-4.6-1C55.5,86.5,54.2,86.6,52.8,86.6z"/>
	<path class="st1" d="M156.5,54.6c0,3.5-2.8,6.4-6.3,6.5c-3.5,0.1-6.4-2.8-6.4-6.4c0-3.5,2.8-6.4,6.3-6.5
		C153.6,48.2,156.5,51.1,156.5,54.6z M152.9,54.7c0-1.6-1.3-2.9-2.9-2.9c-1.6,0-2.9,1.3-2.9,2.9c0,1.5,1.3,2.8,2.8,2.8
		C151.6,57.6,152.9,56.3,152.9,54.7z"/>
	<path class="st0" d="M138.4,83.9c-0.1,3.9-0.2,7.8-1.3,11.6c-0.3,0.9-0.6,1.7-1,2.5c-1.8,3.2-5.5,3.3-7.2,0c-1-1.9-1.7-4.1-1.9-6.2
		c-0.8-6.2-0.9-12.4,0.6-18.5c0.3-1.4,0.9-2.7,1.7-3.9c1.7-2.7,4.8-2.6,6.6,0.1c1.5,2.3,1.9,4.9,2.2,7.5
		C138.2,79.3,138.2,81.6,138.4,83.9z"/>
	<path class="st0" d="M103.1,92.3c-0.3,1.4-0.4,2.8-0.9,4.2c-0.7,2.2-1.9,3.9-4.4,4.2c-2.5,0.3-4.4-0.9-5.6-3
		c-1.5-2.7-2.1-5.7-1.6-8.8c0.6-3.6,4.4-5.9,7.8-4.9c2.1,0.7,3.3,2.3,3.9,4.3C102.8,89.6,102.9,90.9,103.1,92.3z"/>
	<path class="st0" d="M152.9,54.7c0,1.6-1.3,2.9-2.9,2.9c-1.5,0-2.8-1.3-2.8-2.8c0-1.6,1.3-2.9,2.9-2.9
		C151.7,51.8,153,53.1,152.9,54.7z"/>
</g>
</svg>
