<svg data-name="Слой 1" xmlns="http://www.w3.org/2000/svg" viewBox="0 0 15.89 15.89"><g data-name="&lt;Группа&gt;" fill="#fff"><path data-name="&lt;Составной контур&gt;" d="M15.47 2.74A4 4 0 0 0 13.15.42a5.79 5.79 0 0 0-1.93-.37H4.66a5.76 5.76 0 0 0-1.93.37A4 4 0 0 0 .41 2.74a5.79 5.79 0 0 0-.37 1.93v6.56a5.76 5.76 0 0 0 .37 1.93 4 4 0 0 0 2.32 2.32 5.8 5.8 0 0 0 1.93.37h6.56a5.76 5.76 0 0 0 1.93-.37 4 4 0 0 0 2.32-2.32 5.8 5.8 0 0 0 .37-1.93V7.95 4.67a5.76 5.76 0 0 0-.37-1.93zm-1.06 8.42a4.34 4.34 0 0 1-.28 1.47 2.46 2.46 0 0 1-.6.91 2.49 2.49 0 0 1-.91.6 4.38 4.38 0 0 1-1.47.28H4.73a4.34 4.34 0 0 1-1.47-.28 2.46 2.46 0 0 1-.91-.6 2.49 2.49 0 0 1-.6-.91 4.38 4.38 0 0 1-.28-1.47V7.95 4.74a4.34 4.34 0 0 1 .28-1.47 2.64 2.64 0 0 1 1.51-1.51 4.38 4.38 0 0 1 1.47-.28h6.42a4.34 4.34 0 0 1 1.47.28 2.46 2.46 0 0 1 .91.6 2.49 2.49 0 0 1 .6.91 4.38 4.38 0 0 1 .28 1.47v3.21c0 2.12.04 2.37 0 3.2z"/><path data-name="&lt;Составной контур&gt;" d="M7.94 3.86a4.08 4.08 0 1 0 4.08 4.08 4.08 4.08 0 0 0-4.08-4.08zm0 6.73a2.65 2.65 0 1 1 2.65-2.65 2.65 2.65 0 0 1-2.65 2.65z"/><circle data-name="&lt;Контур&gt;" cx="12.18" cy="3.7" r=".95"/></g></svg>