<svg data-name="Слой 1" xmlns="http://www.w3.org/2000/svg" viewBox="0 0 34.42 25.75"><g fill="#b54b49"><path d="M28.46 25.75H.88a.87.87 0 0 1-.87-.87v-24A.87.87 0 0 1 .89.01h32.65a.87.87 0 0 1 .88.88v18.83a.88.88 0 0 1-.87.88h-4.21v4.3a.87.87 0 0 1-.88.85zM1.75 24h25.84v-4.3a.88.88 0 0 1 .88-.87h4.21V1.75H1.75V24z"/><path d="M28.46 25.75a.88.88 0 0 1-.62-1.49l5.04-5.17a.877.877 0 1 1 1.25 1.23l-5.05 5.21a.87.87 0 0 1-.62.22zM7 16.04l8.13-8.13 8.13 8.13"/><path d="M14.5 16.04l6.07-6.06 6.07 6.06"/><circle cx="23.42" cy="7.88" r="1.38"/></g></svg>