<svg data-name="Слой 1" xmlns="http://www.w3.org/2000/svg" viewBox="0 0 44.99 44.99"><circle cx="22.5" cy="22.5" r="22.5" fill="#afc4bf"/><g fill="#fff"><path d="M6.21 18.47h3.15v1a3.43 3.43 0 0 1 2.83-1.33c2.83 0 3.1 2.52 3.1 3.94v5.08h-3.15v-4.78c0-.52 0-1.64-1.12-1.64-.81 0-1.66.65-1.66 2.14v4.29H6.21v-8.7zM26.21 24.52a4.56 4.56 0 0 1-4.68 3c-2.7 0-4.83-1.64-4.83-4.68a4.44 4.44 0 0 1 4.79-4.66c4.14 0 4.86 3.42 4.79 5.37h-6.67a1.86 1.86 0 0 0 1.87 2.09 1.52 1.52 0 0 0 1.66-1.08h3zm-3-2.72a1.74 1.74 0 0 0-1.76-1.76 1.77 1.77 0 0 0-1.76 1.76h3.53zM32.4 27.17h-2.25l-3.53-8.7h3.1l1.64 4.66 1.44-4.66h2.16l1.44 4.66 1.64-4.66h3.1l-3.53 8.7h-2.25l-1.48-4.49z"/></g></svg>