<svg id="Слой_1" data-name="Слой 1" xmlns="http://www.w3.org/2000/svg" viewBox="0 0 44.99 44.99"><defs><style>.cls-1{fill:#cc0e0e;}.cls-2{fill:#fff;}</style></defs><title>sale-01</title><circle class="cls-1" cx="22.51" cy="22.55" r="22.5"/><path class="cls-2" d="M8.23,17.52a5.45,5.45,0,0,1,.39-2A5.75,5.75,0,0,1,9.76,13.7a5.42,5.42,0,0,1,4-1.73A5.52,5.52,0,0,1,16,12.4a5.64,5.64,0,0,1,3,3,5.54,5.54,0,0,1-.34,5,5.64,5.64,0,0,1-2.05,2,5.49,5.49,0,0,1-5.52,0,5.59,5.59,0,0,1-2-2A5.43,5.43,0,0,1,8.23,17.52Zm3.07,0a2.35,2.35,0,0,0,.76,1.82,2.49,2.49,0,0,0,1.73.7,2.44,2.44,0,0,0,1.77-.73,2.48,2.48,0,0,0-.52-3.94A2.54,2.54,0,0,0,13.8,15a2.47,2.47,0,0,0-2.15,1.21A2.42,2.42,0,0,0,11.3,17.52Zm15-6.1h3.34l-11,22.27H15.33Zm-.7,15.31a5.4,5.4,0,0,1,.77-2.81,5.66,5.66,0,0,1,2-2,5.46,5.46,0,0,1,5.5,0,5.71,5.71,0,0,1,2,2,5.37,5.37,0,0,1,.77,2.81,5.44,5.44,0,0,1-.42,2.14,5.61,5.61,0,0,1-3,3,5.56,5.56,0,0,1-5-.32,5.55,5.55,0,0,1-2-2A5.43,5.43,0,0,1,25.64,26.73Zm3.07,0a2.38,2.38,0,0,0,.74,1.77,2.52,2.52,0,0,0,3.52,0,2.37,2.37,0,0,0,.74-1.78,2.52,2.52,0,0,0-.33-1.28,2.4,2.4,0,0,0-.92-.91,2.48,2.48,0,0,0-1.25-.33,2.5,2.5,0,0,0-2.5,2.52Z"/></svg>