<svg data-name="Слой 1" xmlns="http://www.w3.org/2000/svg" viewBox="0 0 19.05 11.11"><path d="M15.88 6.35c.19-.36.86-1.38 1.37-2.14 1.52-2.25 1.8-2.73 1.8-3a.4.4 0 0 0-.4-.4h-3.57a.4.4 0 0 0-.39.33c-.2 1.09-2.77 4.24-3.17 4.43a1.18 1.18 0 0 1-.4-1.19V.98a.94.94 0 0 0-.19-.74c-.27-.28-.67-.28-1.8-.28-2 0-2.78.61-2.78 1.19a.37.37 0 0 0 .33.4s.44.29.44 2a11.58 11.58 0 0 1-.1 2c-1-.18-2.4-2.7-3.07-4.51a.4.4 0 0 0-.4-.25H.38a.4.4 0 0 0-.4.47c.44 2.4 5.48 9.85 8.73 9.85h1.59c.84 0 .9-.91 1-1.52s.09-.86.24-.86a5.85 5.85 0 0 1 2.16 1.44 3.11 3.11 0 0 0 1.41.94h2c1 0 2 0 2-.79 0-.3-.26-.65-1.77-2.38-.55-.55-1.23-1.31-1.46-1.59z" fill="#fff" data-name="VK Logo"/></svg>